<?xml version="1.0" standalone="no"?>
<!DOCTYPE svg PUBLIC "-//W3C//DTD SVG 20010904//EN"
 "http://www.w3.org/TR/2001/REC-SVG-20010904/DTD/svg10.dtd">
<svg version="1.0" xmlns="http://www.w3.org/2000/svg"
 width="270.000000pt" height="270.000000pt" viewBox="0 0 270.000000 270.000000"
 preserveAspectRatio="xMidYMid meet">
<metadata>
Created by potrace 1.16, written by Peter Selinger 2001-2019
</metadata>
<g transform="translate(0.000000,270.000000) scale(0.100000,-0.100000)"
fill="#000000" stroke="none">
<path d="M1302 1900 c-214 -56 -399 -233 -419 -400 -6 -51 4 -140 15 -139 4 0
66 81 137 180 72 99 137 186 145 193 8 8 79 35 158 61 147 48 195 53 221 21
16 -19 4 -60 -26 -88 l-25 -23 7 27 c6 23 3 28 -17 33 -28 7 -206 -38 -223
-57 -7 -7 -27 -39 -45 -70 l-32 -58 37 0 c27 0 44 -8 66 -29 16 -16 29 -34 29
-39 0 -5 -38 -12 -84 -14 -46 -3 -89 -8 -94 -12 -6 -3 -41 -63 -77 -133 -64
-120 -66 -127 -49 -140 35 -26 128 -46 209 -47 90 0 235 37 235 60 0 20 -65
195 -93 251 -27 53 -80 113 -100 113 -19 0 16 20 36 20 40 0 177 63 220 100
55 49 66 83 38 121 -23 32 -21 34 34 45 l40 8 -55 17 c-74 24 -195 23 -288 -1z"/>
<path d="M1735 1779 c-14 -63 -89 -125 -199 -165 l-61 -22 45 -12 c69 -18 138
-60 181 -108 l38 -44 21 34 c34 56 53 135 46 195 -5 46 -48 153 -60 153 -3 0
-7 -14 -11 -31z"/>
</g>
</svg>
